<svg xmlns="http://www.w3.org/2000/svg" xmlns:xlink="http://www.w3.org/1999/xlink" width="1100" zoomAndPan="magnify" viewBox="0 0 824.88 824.999997" height="1100" preserveAspectRatio="xMidYMid meet" version="1.0"><defs><clipPath id="600f8f3474"><path d="M 248.816406 248 L 577 248 L 577 577 L 248.816406 577 Z M 248.816406 248 " clip-rule="nonzero"/></clipPath></defs><g clip-path="url(#600f8f3474)"><path fill="#2596be" d="M 248.816406 321.3125 C 248.816406 281.304688 281.246094 248.875 321.253906 248.875 L 503.625 248.875 C 543.632812 248.875 576.066406 281.304688 576.066406 321.3125 L 576.066406 503.6875 C 576.066406 543.691406 543.632812 576.125 503.625 576.125 L 321.253906 576.125 C 281.246094 576.125 248.816406 543.691406 248.816406 503.6875 Z M 248.816406 321.3125 " fill-opacity="1" fill-rule="evenodd"/></g><path fill="#ffffff" d="M 535.183594 447.714844 C 535.183594 452.515625 531.261719 456.414062 526.410156 456.414062 L 508.863281 456.414062 C 504.011719 456.414062 500.089844 452.515625 500.089844 447.714844 C 500.089844 442.914062 504.011719 439.015625 508.863281 439.015625 L 526.410156 439.015625 C 531.261719 439.015625 535.183594 442.914062 535.183594 447.714844 Z M 535.183594 447.714844 " fill-opacity="1" fill-rule="evenodd"/><path fill="#ffffff" d="M 324.613281 447.714844 C 324.613281 452.515625 320.691406 456.414062 315.839844 456.414062 L 298.292969 456.414062 C 293.441406 456.414062 289.519531 452.515625 289.519531 447.714844 C 289.519531 442.914062 293.441406 439.015625 298.292969 439.015625 L 315.839844 439.015625 C 320.691406 439.015625 324.613281 442.914062 324.613281 447.714844 Z M 324.613281 447.714844 " fill-opacity="1" fill-rule="evenodd"/><path fill="#ffffff" d="M 325.644531 373.386719 C 322.269531 369.933594 322.269531 364.351562 325.644531 360.898438 C 329.027344 357.445312 334.488281 357.445312 337.871094 360.898438 L 348.175781 371.425781 C 351.554688 374.878906 351.554688 380.460938 348.175781 383.914062 C 344.792969 387.371094 339.332031 387.371094 335.949219 383.914062 Z M 325.644531 373.386719 " fill-opacity="1" fill-rule="evenodd"/><path fill="#ffffff" d="M 476.25 383.914062 C 472.839844 380.460938 472.839844 374.878906 476.25 371.425781 L 486.667969 360.898438 C 490.082031 357.445312 495.605469 357.445312 499.023438 360.898438 C 502.441406 364.351562 502.441406 369.933594 499.023438 373.386719 L 488.605469 383.914062 C 485.191406 387.371094 479.667969 387.371094 476.25 383.914062 Z M 476.25 383.914062 " fill-opacity="1" fill-rule="evenodd"/><path fill="#ffffff" d="M 464.59375 455.09375 C 469.179688 423.417969 444.484375 395.023438 412.5 395.023438 C 380.488281 395.023438 355.820312 423.453125 360.40625 455.09375 C 361.089844 459.875 357.757812 464.316406 352.957031 465 C 348.140625 465.65625 343.71875 462.355469 343.027344 457.574219 C 336.957031 415.042969 370.097656 377.511719 412.5 377.511719 C 454.933594 377.511719 488.03125 415.089844 481.972656 457.582031 C 481.277344 462.355469 476.847656 465.691406 472.039062 465.007812 C 467.242188 464.316406 463.910156 459.875 464.589844 455.09375 Z M 464.59375 455.09375 " fill-opacity="1" fill-rule="evenodd"/><path fill="#ffffff" d="M 500.089844 491.359375 C 500.089844 496.242188 496.164062 500.207031 491.316406 500.207031 L 333.386719 500.207031 C 328.535156 500.207031 324.613281 496.242188 324.613281 491.359375 C 324.613281 486.472656 328.535156 482.511719 333.386719 482.511719 L 491.316406 482.511719 C 496.164062 482.511719 500.089844 486.472656 500.089844 491.359375 Z M 500.089844 491.359375 " fill-opacity="1" fill-rule="evenodd"/><path fill="#ffffff" d="M 412.203125 359.828125 C 407.398438 359.828125 403.503906 355.902344 403.503906 351.054688 L 403.503906 333.507812 C 403.503906 328.652344 407.398438 324.730469 412.203125 324.730469 C 417.003906 324.730469 420.898438 328.652344 420.898438 333.507812 L 420.898438 351.054688 C 420.898438 355.902344 417.003906 359.828125 412.203125 359.828125 Z M 412.203125 359.828125 " fill-opacity="1" fill-rule="evenodd"/></svg>